<?xml version="1.0" encoding="utf-8"?>
<!-- Generator: Adobe Illustrator 25.2.0, SVG Export Plug-In . SVG Version: 6.00 Build 0)  -->
<svg version="1.1" id="Слой_1" xmlns="http://www.w3.org/2000/svg" xmlns:xlink="http://www.w3.org/1999/xlink" x="0px" y="0px"
	 viewBox="0 0 512 512" style="enable-background:new 0 0 512 512;" xml:space="preserve">
<style type="text/css">
	.st0{fill:#E9ECEF;}
</style>
<path class="st0" d="M504.1,471l-134-134c29-35.5,45-80.2,45-129c0-114.9-93.1-208-208-208S0,93.1,0,208s93.1,208,207.1,208
	c48.8,0,93.6-16.9,129-45l134,134c5.6,4.7,11.8,7,17.9,7s12.3-2.3,17-7C514.3,495.6,514.3,480.4,504.1,471z M48,208
	c0-88.2,71.8-160,160-160s160,71.8,160,160s-71.8,160-160,160S48,296.2,48,208z"/>
</svg>
